<?xml version="1.0" standalone="no"?>
<!DOCTYPE svg PUBLIC "-//W3C//DTD SVG 20010904//EN"
 "http://www.w3.org/TR/2001/REC-SVG-20010904/DTD/svg10.dtd">
<svg version="1.0" xmlns="http://www.w3.org/2000/svg"
 width="482.000000pt" height="364.000000pt" viewBox="0 0 482.000000 364.000000"
 preserveAspectRatio="xMidYMid meet">

<g transform="translate(0.000000,364.000000) scale(0.100000,-0.100000)"
fill="#000000" stroke="none">
<path d="M2547 2338 c-62 -87 -124 -211 -167 -335 -10 -29 -29 -75 -42 -103
-21 -46 -28 -52 -85 -75 -35 -14 -67 -25 -72 -25 -4 0 -7 20 -7 43 2 81 -49
100 -122 47 -66 -48 -140 -155 -233 -339 -32 -64 -58 -108 -59 -99 0 33 81
334 121 448 52 146 56 164 38 158 -17 -5 -39 -49 -75 -148 -21 -59 -39 -87
-83 -133 -69 -71 -126 -111 -146 -103 -20 7 -20 86 0 152 36 117 13 126 -78
30 -74 -78 -142 -136 -159 -136 -16 0 0 69 28 124 16 33 21 53 15 59 -23 23
-62 -41 -83 -136 -12 -58 -4 -97 20 -97 26 0 101 51 152 104 24 25 48 46 52
46 4 0 5 -27 2 -59 -8 -72 0 -107 27 -121 29 -16 79 3 141 55 29 24 54 43 55
41 1 -1 -4 -24 -13 -51 -20 -69 -60 -280 -74 -394 -9 -70 -9 -96 -1 -104 16
-16 24 -1 56 101 35 112 122 305 181 399 52 84 153 193 178 193 20 0 28 -35
18 -78 -5 -24 -24 -47 -72 -85 -109 -89 -154 -165 -115 -197 35 -29 126 47
186 156 38 70 41 72 112 102 39 17 73 29 74 28 2 -1 -5 -36 -13 -77 -20 -92
-23 -214 -6 -231 22 -22 44 4 107 124 71 134 121 214 139 221 10 4 15 -12 18
-64 3 -38 11 -76 19 -85 17 -21 65 -13 117 20 l41 26 -1 -52 c0 -44 4 -56 27
-75 31 -27 52 -29 83 -7 32 22 52 66 52 114 0 36 2 40 25 40 14 0 48 9 77 20
28 11 53 19 54 17 1 -1 -9 -36 -23 -77 -14 -41 -28 -105 -31 -142 -4 -64 -3
-68 16 -68 17 0 34 24 82 118 33 64 71 129 84 144 l25 27 34 -34 c40 -40 49
-42 100 -16 34 17 37 17 33 3 -14 -49 -15 -119 -3 -142 25 -50 82 -40 164 30
53 45 58 48 65 30 14 -39 50 -23 125 55 40 41 74 75 76 75 2 0 3 -30 3 -67 -1
-63 1 -68 22 -71 30 -4 96 35 166 99 52 47 70 79 46 79 -6 0 -40 -25 -75 -55
-69 -58 -119 -88 -129 -78 -11 12 6 76 45 168 22 50 39 95 39 102 0 31 -23 18
-65 -37 l-46 -60 -30 15 c-26 14 -32 14 -59 0 -16 -8 -56 -50 -89 -93 -82
-108 -166 -184 -200 -180 -37 4 -38 39 -7 149 14 50 26 94 26 99 0 20 -21 9
-51 -25 -45 -51 -94 -79 -117 -66 -11 6 -22 21 -26 35 -18 73 -90 24 -166
-114 -33 -61 -40 -68 -35 -40 4 19 24 79 46 134 21 54 39 104 39 112 0 28 -27
13 -44 -23 -15 -34 -24 -40 -89 -61 -40 -12 -92 -23 -117 -25 -49 -2 -47 4
-34 -89 9 -60 -51 -105 -77 -57 -24 45 28 171 78 190 21 8 23 12 13 24 -7 8
-16 15 -21 15 -4 0 -38 -27 -75 -59 -37 -33 -86 -70 -111 -83 -55 -29 -63 -20
-63 78 0 86 -14 106 -55 80 -38 -25 -107 -124 -162 -231 -67 -132 -74 -128
-48 31 21 131 50 218 105 314 93 165 129 236 154 304 30 79 31 86 12 86 -8 0
-35 -28 -59 -62z m1227 -487 c9 -14 -117 -161 -129 -150 -10 11 18 74 52 117
32 39 65 53 77 33z m-1694 -186 c0 -17 -84 -105 -100 -105 -17 0 6 36 51 81
43 43 49 46 49 24z"/>
<path d="M1190 2295 c-74 -13 -155 -30 -179 -38 -47 -15 -67 -37 -32 -37 11 0
22 -3 24 -7 3 -5 -10 -39 -29 -76 -39 -81 -113 -259 -125 -303 -5 -18 -19 -36
-34 -42 -29 -13 -32 -27 -9 -40 16 -9 15 -15 -1 -81 -47 -194 3 -264 165 -227
73 16 297 99 314 116 7 7 7 13 -1 21 -8 8 -46 -2 -140 -39 -152 -59 -235 -78
-276 -63 -46 18 -51 51 -27 166 12 55 26 105 31 111 5 6 66 26 137 44 134 35
153 43 135 61 -7 7 -45 2 -129 -19 -66 -17 -121 -28 -124 -25 -12 12 134 363
169 403 12 14 54 26 169 45 83 15 164 25 180 23 19 -2 27 2 27 12 0 24 -92 22
-245 -5z"/>
<path d="M3440 1954 c0 -21 4 -25 23 -22 14 2 23 11 25 26 3 18 -1 22 -22 22
-21 0 -26 -5 -26 -26z"/>
<path d="M1811 1194 c-11 -59 -8 -90 5 -38 11 48 17 50 34 8 l17 -39 20 45 21
45 7 -42 c4 -24 12 -43 17 -43 5 0 7 8 4 18 -3 9 -10 37 -17 62 l-12 45 -13
-30 c-7 -16 -13 -36 -14 -43 0 -24 -23 -7 -34 25 -17 49 -22 47 -35 -13z"/>
<path d="M2076 1196 c-15 -32 -25 -61 -22 -64 3 -3 8 3 12 12 8 22 60 21 73
-1 20 -35 10 11 -13 62 l-24 50 -26 -59z m44 -7 c0 -12 -7 -19 -20 -19 -23 0
-24 4 -9 31 12 23 29 16 29 -12z"/>
<path d="M2283 1190 c0 -36 2 -55 4 -42 2 12 7 22 10 22 2 0 14 -10 25 -22
l19 -23 -17 33 c-18 31 -18 33 0 65 l17 32 -19 -22 c-11 -13 -23 -23 -25 -23
-3 0 -8 10 -10 23 -2 12 -4 -7 -4 -43z"/>
<path d="M2470 1192 l0 -62 38 2 c35 1 35 1 5 5 -30 4 -31 6 -31 55 -1 27 -3
53 -6 56 -3 3 -6 -22 -6 -56z"/>
<path d="M2672 1204 c-2 -59 12 -77 55 -72 27 3 28 5 29 63 l1 60 -6 -55 c-6
-51 -8 -55 -33 -58 -29 -3 -34 5 -41 78 -3 26 -4 22 -5 -16z"/>
<path d="M2891 1188 c1 -42 3 -55 8 -38 5 18 16 26 36 30 25 4 30 10 30 35 0
27 -3 30 -37 33 l-38 3 1 -63z m64 27 c0 -31 -49 -28 -53 3 -3 20 0 23 25 20
20 -2 28 -8 28 -23z"/>
</g>
</svg>
